<mxfile host="65bd71144e">
    <diagram id="nGST3fsK-m_9oLN1t_x2" name="第 1 页">
        <mxGraphModel dx="496" dy="440" grid="1" gridSize="10" guides="1" tooltips="1" connect="1" arrows="1" fold="1" page="1" pageScale="1" pageWidth="827" pageHeight="1169" math="0" shadow="0">
            <root>
                <mxCell id="0"/>
                <mxCell id="1" parent="0"/>
                <mxCell id="56" style="edgeStyle=none;html=1;exitX=0.75;exitY=0;exitDx=0;exitDy=0;entryX=0.5;entryY=1.125;entryDx=0;entryDy=0;entryPerimeter=0;endArrow=classic;endFill=1;dashed=1;" parent="1" source="17" target="25" edge="1">
                    <mxGeometry relative="1" as="geometry"/>
                </mxCell>
                <mxCell id="57" value="use" style="edgeLabel;html=1;align=center;verticalAlign=middle;resizable=0;points=[];" parent="56" vertex="1" connectable="0">
                    <mxGeometry x="-0.3568" y="-1" relative="1" as="geometry">
                        <mxPoint as="offset"/>
                    </mxGeometry>
                </mxCell>
                <mxCell id="17" value="MyServer" style="swimlane;fontStyle=1;align=center;verticalAlign=top;childLayout=stackLayout;horizontal=1;startSize=26;horizontalStack=0;resizeParent=1;resizeParentMax=0;resizeLast=0;collapsible=1;marginBottom=0;strokeColor=default;" parent="1" vertex="1">
                    <mxGeometry x="30" y="590" width="220" height="310" as="geometry"/>
                </mxCell>
                <mxCell id="18" value="+ svr:httplib::Server&#10;+ runUser:string&#10;+ address:string&#10;+ url:string&#10;+ port:int&#10;+ conCurrencyLimit:int&#10;+ keepaliveLimit:int&#10;+ paramsList:map&lt;string,json&gt;" style="text;strokeColor=none;fillColor=none;align=left;verticalAlign=top;spacingLeft=4;spacingRight=4;overflow=hidden;rotatable=0;points=[[0,0.5],[1,0.5]];portConstraint=eastwest;" parent="17" vertex="1">
                    <mxGeometry y="26" width="220" height="124" as="geometry"/>
                </mxCell>
                <mxCell id="19" value="" style="line;strokeWidth=1;fillColor=none;align=left;verticalAlign=middle;spacingTop=-1;spacingLeft=3;spacingRight=3;rotatable=0;labelPosition=right;points=[];portConstraint=eastwest;strokeColor=inherit;" parent="17" vertex="1">
                    <mxGeometry y="150" width="220" height="8" as="geometry"/>
                </mxCell>
                <mxCell id="20" value="+ Myserver()&#10;+ SetParams(Json config):void&#10;+ GetrunUser():string&#10;+ Getaddress():string&#10;+ Geturl():string&#10;+ Getport():int&#10;+ GetconcurrencyLimit():int&#10;+ GetkeepaliveLimit():int&#10;+ GetparamsList:map&lt;string,json&gt;&#10;+ run():void" style="text;strokeColor=none;fillColor=none;align=left;verticalAlign=top;spacingLeft=4;spacingRight=4;overflow=hidden;rotatable=0;points=[[0,0.5],[1,0.5]];portConstraint=eastwest;" parent="17" vertex="1">
                    <mxGeometry y="158" width="220" height="152" as="geometry"/>
                </mxCell>
                <mxCell id="22" value="HandlerFactory" style="swimlane;fontStyle=1;align=center;verticalAlign=top;childLayout=stackLayout;horizontal=1;startSize=26;horizontalStack=0;resizeParent=1;resizeParentMax=0;resizeLast=0;collapsible=1;marginBottom=0;strokeColor=default;" parent="1" vertex="1">
                    <mxGeometry x="194" y="170" width="220" height="50" as="geometry"/>
                </mxCell>
                <mxCell id="25" value="+ virtual CreateHandler():Handler *" style="text;strokeColor=none;fillColor=none;align=left;verticalAlign=top;spacingLeft=4;spacingRight=4;overflow=hidden;rotatable=0;points=[[0,0.5],[1,0.5]];portConstraint=eastwest;" parent="22" vertex="1">
                    <mxGeometry y="26" width="220" height="24" as="geometry"/>
                </mxCell>
                <mxCell id="26" value="Json" style="swimlane;fontStyle=1;align=center;verticalAlign=top;childLayout=stackLayout;horizontal=1;startSize=26;horizontalStack=0;resizeParent=1;resizeParentMax=0;resizeLast=0;collapsible=1;marginBottom=0;strokeColor=default;" parent="1" vertex="1">
                    <mxGeometry x="465" y="880" width="200" height="280" as="geometry"/>
                </mxCell>
                <mxCell id="27" value="+ runUser:string&#10;+ address:string&#10;+ url:string&#10;+ port:int&#10;+ conCurrencyLimit:int&#10;+ keepaliveLimit:int&#10;+ paramsList:map&lt;string,json&gt;" style="text;strokeColor=none;fillColor=none;align=left;verticalAlign=top;spacingLeft=4;spacingRight=4;overflow=hidden;rotatable=0;points=[[0,0.5],[1,0.5]];portConstraint=eastwest;" parent="26" vertex="1">
                    <mxGeometry y="26" width="200" height="114" as="geometry"/>
                </mxCell>
                <mxCell id="28" value="" style="line;strokeWidth=1;fillColor=none;align=left;verticalAlign=middle;spacingTop=-1;spacingLeft=3;spacingRight=3;rotatable=0;labelPosition=right;points=[];portConstraint=eastwest;strokeColor=inherit;" parent="26" vertex="1">
                    <mxGeometry y="140" width="200" height="8" as="geometry"/>
                </mxCell>
                <mxCell id="29" value="+ JsonParse(string path):void&#10;+ GetrunUser():string&#10;+ Getaddress():string&#10;+ Geturl():string&#10;+ Getport():int&#10;+ GetconcurrencyLimit():int&#10;+ GetkeepaliveLimit():int&#10;+ GetparamsList:map&lt;string,json&gt;" style="text;strokeColor=none;fillColor=none;align=left;verticalAlign=top;spacingLeft=4;spacingRight=4;overflow=hidden;rotatable=0;points=[[0,0.5],[1,0.5]];portConstraint=eastwest;" parent="26" vertex="1">
                    <mxGeometry y="148" width="200" height="132" as="geometry"/>
                </mxCell>
                <mxCell id="58" style="edgeStyle=none;html=1;exitX=0.25;exitY=0;exitDx=0;exitDy=0;entryX=0.764;entryY=1.042;entryDx=0;entryDy=0;entryPerimeter=0;endArrow=classic;endFill=1;" parent="1" source="30" target="25" edge="1">
                    <mxGeometry relative="1" as="geometry"/>
                </mxCell>
                <mxCell id="30" value="FixedFactory" style="swimlane;fontStyle=1;align=center;verticalAlign=top;childLayout=stackLayout;horizontal=1;startSize=26;horizontalStack=0;resizeParent=1;resizeParentMax=0;resizeLast=0;collapsible=1;marginBottom=0;strokeColor=default;" parent="1" vertex="1">
                    <mxGeometry x="314" y="360" width="200" height="50" as="geometry"/>
                </mxCell>
                <mxCell id="33" value="+ CreateHandler():Handler *" style="text;strokeColor=none;fillColor=none;align=left;verticalAlign=top;spacingLeft=4;spacingRight=4;overflow=hidden;rotatable=0;points=[[0,0.5],[1,0.5]];portConstraint=eastwest;" parent="30" vertex="1">
                    <mxGeometry y="26" width="200" height="24" as="geometry"/>
                </mxCell>
                <mxCell id="59" style="edgeStyle=none;html=1;exitX=0.5;exitY=0;exitDx=0;exitDy=0;entryX=1;entryY=0.5;entryDx=0;entryDy=0;endArrow=classic;endFill=1;" parent="1" source="34" target="25" edge="1">
                    <mxGeometry relative="1" as="geometry"/>
                </mxCell>
                <mxCell id="34" value="ChunkedFactor" style="swimlane;fontStyle=1;align=center;verticalAlign=top;childLayout=stackLayout;horizontal=1;startSize=26;horizontalStack=0;resizeParent=1;resizeParentMax=0;resizeLast=0;collapsible=1;marginBottom=0;strokeColor=default;" parent="1" vertex="1">
                    <mxGeometry x="600" y="350" width="190" height="50" as="geometry"/>
                </mxCell>
                <mxCell id="37" value="+ CreateHandler():Handler *" style="text;strokeColor=none;fillColor=none;align=left;verticalAlign=top;spacingLeft=4;spacingRight=4;overflow=hidden;rotatable=0;points=[[0,0.5],[1,0.5]];portConstraint=eastwest;" parent="34" vertex="1">
                    <mxGeometry y="26" width="190" height="24" as="geometry"/>
                </mxCell>
                <mxCell id="38" value="FixedHandler" style="swimlane;fontStyle=1;align=center;verticalAlign=top;childLayout=stackLayout;horizontal=1;startSize=26;horizontalStack=0;resizeParent=1;resizeParentMax=0;resizeLast=0;collapsible=1;marginBottom=0;strokeColor=default;" parent="1" vertex="1">
                    <mxGeometry x="314" y="480" width="210" height="70" as="geometry"/>
                </mxCell>
                <mxCell id="41" value="+ SaveContent(string content):bool&#10;+ SendContent(string content):bool" style="text;strokeColor=none;fillColor=none;align=left;verticalAlign=top;spacingLeft=4;spacingRight=4;overflow=hidden;rotatable=0;points=[[0,0.5],[1,0.5]];portConstraint=eastwest;" parent="38" vertex="1">
                    <mxGeometry y="26" width="210" height="44" as="geometry"/>
                </mxCell>
                <mxCell id="69" value="" style="edgeStyle=none;html=1;dashed=1;endArrow=classic;endFill=1;entryX=0.5;entryY=0;entryDx=0;entryDy=0;" parent="1" source="50" target="26" edge="1">
                    <mxGeometry relative="1" as="geometry"/>
                </mxCell>
                <mxCell id="70" value="use" style="edgeLabel;html=1;align=center;verticalAlign=middle;resizable=0;points=[];" parent="69" vertex="1" connectable="0">
                    <mxGeometry x="-0.3383" y="-1" relative="1" as="geometry">
                        <mxPoint as="offset"/>
                    </mxGeometry>
                </mxCell>
                <mxCell id="50" value="Handler" style="swimlane;fontStyle=1;align=center;verticalAlign=top;childLayout=stackLayout;horizontal=1;startSize=26;horizontalStack=0;resizeParent=1;resizeParentMax=0;resizeLast=0;collapsible=1;marginBottom=0;strokeColor=default;" parent="1" vertex="1">
                    <mxGeometry x="414" y="620" width="270" height="190" as="geometry"/>
                </mxCell>
                <mxCell id="51" value="+ url:string&#10;+ handlerName:string&#10;+ dir:string" style="text;strokeColor=none;fillColor=none;align=left;verticalAlign=top;spacingLeft=4;spacingRight=4;overflow=hidden;rotatable=0;points=[[0,0.5],[1,0.5]];portConstraint=eastwest;" parent="50" vertex="1">
                    <mxGeometry y="26" width="270" height="54" as="geometry"/>
                </mxCell>
                <mxCell id="52" value="" style="line;strokeWidth=1;fillColor=none;align=left;verticalAlign=middle;spacingTop=-1;spacingLeft=3;spacingRight=3;rotatable=0;labelPosition=right;points=[];portConstraint=eastwest;strokeColor=inherit;" parent="50" vertex="1">
                    <mxGeometry y="80" width="270" height="8" as="geometry"/>
                </mxCell>
                <mxCell id="53" value="+ InitParams(json config):void&#10;+ Geturl():string&#10;+ GethandlerName():string&#10;+ Getdir():string&#10;+ virtual SaveContent(string content):bool&#10;+ virtual SendContent(string content):bool" style="text;strokeColor=none;fillColor=none;align=left;verticalAlign=top;spacingLeft=4;spacingRight=4;overflow=hidden;rotatable=0;points=[[0,0.5],[1,0.5]];portConstraint=eastwest;" parent="50" vertex="1">
                    <mxGeometry y="88" width="270" height="102" as="geometry"/>
                </mxCell>
                <mxCell id="54" value="ChunkedHandler" style="swimlane;fontStyle=1;align=center;verticalAlign=top;childLayout=stackLayout;horizontal=1;startSize=26;horizontalStack=0;resizeParent=1;resizeParentMax=0;resizeLast=0;collapsible=1;marginBottom=0;strokeColor=default;" parent="1" vertex="1">
                    <mxGeometry x="600" y="480" width="210" height="70" as="geometry"/>
                </mxCell>
                <mxCell id="55" value="+ SaveContent(string content):bool&#10;+ SendContent(string content):bool" style="text;strokeColor=none;fillColor=none;align=left;verticalAlign=top;spacingLeft=4;spacingRight=4;overflow=hidden;rotatable=0;points=[[0,0.5],[1,0.5]];portConstraint=eastwest;" parent="54" vertex="1">
                    <mxGeometry y="26" width="210" height="44" as="geometry"/>
                </mxCell>
                <mxCell id="60" value="" style="endArrow=classic;html=1;exitX=0.329;exitY=1.042;exitDx=0;exitDy=0;exitPerimeter=0;entryX=0.25;entryY=0;entryDx=0;entryDy=0;" parent="1" source="41" target="50" edge="1">
                    <mxGeometry width="50" height="50" relative="1" as="geometry">
                        <mxPoint x="410" y="720" as="sourcePoint"/>
                        <mxPoint x="460" y="670" as="targetPoint"/>
                    </mxGeometry>
                </mxCell>
                <mxCell id="61" value="" style="endArrow=classic;html=1;exitX=0.576;exitY=1.083;exitDx=0;exitDy=0;exitPerimeter=0;entryX=0.75;entryY=0;entryDx=0;entryDy=0;" parent="1" source="55" target="50" edge="1">
                    <mxGeometry width="50" height="50" relative="1" as="geometry">
                        <mxPoint x="410" y="720" as="sourcePoint"/>
                        <mxPoint x="460" y="670" as="targetPoint"/>
                    </mxGeometry>
                </mxCell>
                <mxCell id="66" value="" style="endArrow=classic;html=1;exitX=0.525;exitY=1.083;exitDx=0;exitDy=0;exitPerimeter=0;entryX=0.5;entryY=0;entryDx=0;entryDy=0;dashed=1;" parent="1" source="33" target="38" edge="1">
                    <mxGeometry width="50" height="50" relative="1" as="geometry">
                        <mxPoint x="410" y="720" as="sourcePoint"/>
                        <mxPoint x="460" y="670" as="targetPoint"/>
                    </mxGeometry>
                </mxCell>
                <mxCell id="67" value="" style="endArrow=classic;html=1;dashed=1;exitX=0.537;exitY=1.208;exitDx=0;exitDy=0;exitPerimeter=0;entryX=0.5;entryY=0;entryDx=0;entryDy=0;" parent="1" source="37" target="54" edge="1">
                    <mxGeometry width="50" height="50" relative="1" as="geometry">
                        <mxPoint x="410" y="720" as="sourcePoint"/>
                        <mxPoint x="460" y="670" as="targetPoint"/>
                    </mxGeometry>
                </mxCell>
                <mxCell id="71" style="edgeStyle=none;html=1;exitX=1;exitY=0.5;exitDx=0;exitDy=0;entryX=0;entryY=0.5;entryDx=0;entryDy=0;dashed=1;endArrow=classic;endFill=1;" parent="1" source="20" target="27" edge="1">
                    <mxGeometry relative="1" as="geometry"/>
                </mxCell>
                <mxCell id="72" value="use" style="edgeLabel;html=1;align=center;verticalAlign=middle;resizable=0;points=[];" parent="71" vertex="1" connectable="0">
                    <mxGeometry x="-0.0973" y="-3" relative="1" as="geometry">
                        <mxPoint as="offset"/>
                    </mxGeometry>
                </mxCell>
            </root>
        </mxGraphModel>
    </diagram>
</mxfile>
